<?xml version="1.0" encoding="UTF-8" standalone="no" ?>
<!DOCTYPE svg PUBLIC "-//W3C//DTD SVG 1.1//EN" "http://www.w3.org/Graphics/SVG/1.1/DTD/svg11.dtd">
<svg xmlns="http://www.w3.org/2000/svg" xmlns:xlink="http://www.w3.org/1999/xlink" version="1.1" width="360" height="360" viewBox="0 0 360 360" xml:space="preserve">
<desc>Created with Fabric.js 5.2.4</desc>
<defs>
</defs>
<rect x="0" y="0" width="100%" height="100%" fill="transparent"></rect>
<g transform="matrix(0 0 0 0 0 0)" id="794b2249-99e8-461c-8c28-44f3d98baa49"  >
</g>
<g transform="matrix(1 0 0 1 180 180)" id="351a80c1-2484-4c1e-90e7-804f5b32eee9"  >
<rect style="stroke: none; stroke-width: 1; stroke-dasharray: none; stroke-linecap: butt; stroke-dashoffset: 0; stroke-linejoin: miter; stroke-miterlimit: 4; fill: rgb(255,255,255); fill-opacity: 0.62; fill-rule: nonzero; opacity: 1;" vector-effect="non-scaling-stroke"  x="-180" y="-180" rx="0" ry="0" width="360" height="360" />
</g>
<g transform="matrix(1.01 0 0 1.05 178.5 179.22)"  >
<g style="opacity: 1;" vector-effect="non-scaling-stroke"   >
		<g transform="matrix(0.13 0 0 -0.13 -4.07 -4)"  >
<path style="stroke: none; stroke-width: 1; stroke-dasharray: none; stroke-linecap: butt; stroke-dashoffset: 0; stroke-linejoin: miter; stroke-miterlimit: 4; fill: rgb(44,33,109); fill-opacity: 0.96; fill-rule: nonzero; opacity: 1;" vector-effect="non-scaling-stroke"  transform=" translate(-1499.38, -1581.48)" d="M 1431 2751 C 1386 2709 1388 2659 1435 2614 C 1465 2586 1470 2575 1470 2536 L 1470 2490 L 1401 2490 C 1356 2490 1328 2486 1323 2478 C 1319 2471 1315 2432 1315 2391 L 1315 2318 L 1259 2300 C 1228 2291 1177 2269 1145 2252 L 1086 2220 L 1031 2275 C 1001 2305 972 2330 967 2330 C 963 2330 934 2307 904 2278 L 849 2226 L 795 2280 L 742 2333 L 776 2365 C 805 2393 818 2398 857 2397 C 897 2397 907 2401 932 2429 C 970 2472 970 2519 931 2562 C 907 2589 895 2595 860 2595 C 825 2595 813 2589 788 2561 C 762 2532 758 2521 763 2484 C 767 2444 765 2439 719 2394 C 692 2367 670 2341 670 2335 C 670 2329 701 2293 740 2255 L 809 2186 L 765 2139 C 740 2112 720 2087 720 2083 C 720 2079 745 2050 775 2020 L 830 1964 L 800 1909 C 784 1880 765 1832 759 1803 L 747 1751 L 671 1748 L 595 1745 L 594 1685 L 593 1625 L 541 1622 C 493 1619 487 1621 456 1654 C 428 1684 416 1690 381 1690 C 289 1690 245 1584 309 1519 C 332 1496 347 1490 381 1490 C 416 1490 428 1496 456 1525 C 485 1557 494 1560 542 1560 L 596 1560 L 592 1494 C 587 1414 591 1410 681 1410 L 747 1410 L 754 1371 C 757 1350 775 1302 794 1264 L 829 1196 L 774 1139 C 744 1107 720 1078 720 1074 C 720 1069 741 1044 767 1018 L 814 970 L 747 902 C 710 865 680 827 680 819 C 680 810 702 782 729 757 C 775 714 778 707 773 675 C 766 631 789 594 836 574 C 865 562 875 562 904 574 C 975 603 991 675 940 730 C 914 757 905 761 866 759 C 829 757 817 761 786 788 L 750 819 L 801 867 C 829 893 855 916 860 918 C 864 920 886 900 908 875 C 930 850 956 830 966 830 C 976 830 1008 853 1036 881 L 1087 932 L 1158 896 C 1196 877 1248 856 1272 850 L 1316 839 L 1312 776 C 1306 690 1321 676 1407 682 L 1470 686 L 1470 637 C 1470 595 1466 585 1435 556 C 1386 510 1386 462 1434 414 C 1501 347 1599 390 1600 487 C 1600 523 1595 533 1565 557 C 1533 582 1530 590 1530 635 L 1530 686 L 1595 682 C 1682 676 1690 684 1690 771 L 1690 839 L 1732 851 C 1755 857 1805 878 1844 897 L 1913 932 L 1964 881 C 1993 852 2025 830 2037 830 C 2049 830 2075 849 2099 875 C 2122 900 2142 920 2143 920 C 2145 920 2170 898 2198 870 L 2250 820 L 2213 786 C 2182 758 2172 754 2152 761 C 2119 774 2065 748 2046 711 C 2026 673 2026 657 2045 620 C 2064 584 2092 568 2138 568 C 2166 568 2181 575 2203 600 C 2228 628 2231 639 2227 673 C 2222 711 2224 716 2271 758 C 2298 782 2320 809 2320 818 C 2320 827 2290 865 2253 902 L 2186 970 L 2233 1018 C 2259 1044 2280 1070 2280 1076 C 2280 1081 2255 1110 2225 1140 L 2171 1194 L 2192 1228 C 2203 1246 2223 1294 2235 1333 L 2258 1405 L 2332 1410 L 2405 1415 L 2408 1488 L 2411 1560 L 2470 1560 C 2520 1560 2530 1557 2535 1539 C 2545 1509 2600 1486 2643 1494 C 2691 1503 2720 1541 2720 1595 C 2720 1654 2684 1690 2625 1690 C 2580 1690 2530 1661 2530 1634 C 2530 1624 2515 1620 2470 1620 L 2411 1620 L 2408 1683 L 2405 1745 L 2332 1750 L 2259 1755 L 2235 1826 C 2222 1865 2202 1913 2191 1932 L 2170 1966 L 2225 2020 C 2255 2050 2280 2079 2280 2085 C 2280 2091 2260 2116 2235 2140 L 2190 2184 L 2260 2255 C 2298 2294 2330 2330 2330 2336 C 2330 2341 2308 2367 2282 2393 C 2235 2439 2233 2443 2238 2488 C 2241 2529 2239 2539 2216 2562 C 2179 2598 2146 2604 2102 2583 C 1999 2533 2038 2393 2154 2398 C 2190 2399 2201 2395 2228 2367 L 2260 2334 L 2205 2280 L 2150 2226 L 2097 2278 C 2068 2307 2040 2330 2035 2330 C 2030 2330 2000 2305 1968 2273 C 1924 2229 1908 2219 1898 2228 C 1871 2250 1764 2298 1727 2305 L 1690 2312 L 1690 2389 C 1690 2436 1685 2471 1678 2478 C 1671 2485 1638 2490 1598 2490 L 1530 2490 L 1530 2540 C 1530 2568 1534 2590 1539 2590 C 1543 2590 1559 2602 1574 2616 C 1593 2636 1600 2653 1600 2683 C 1600 2773 1499 2814 1431 2751 z M 1528 2718 C 1545 2701 1543 2665 1525 2650 C 1501 2630 1460 2653 1460 2684 C 1460 2721 1503 2743 1528 2718 z M 894 2518 C 907 2499 908 2493 896 2475 C 889 2464 872 2455 860 2455 C 848 2455 831 2464 824 2475 C 812 2493 813 2499 826 2518 C 834 2530 850 2540 860 2540 C 870 2540 886 2530 894 2518 z M 2174 2524 C 2183 2516 2190 2502 2190 2495 C 2190 2488 2183 2474 2174 2466 C 2144 2436 2100 2453 2100 2495 C 2100 2537 2144 2554 2174 2524 z M 1630 2350 L 1630 2271 L 1673 2260 C 1739 2243 1790 2221 1853 2184 C 1885 2165 1915 2150 1919 2150 C 1922 2150 1949 2174 1978 2203 L 2031 2257 L 2116 2171 C 2162 2124 2200 2083 2200 2081 C 2200 2078 2177 2053 2150 2025 L 2099 1974 L 2139 1894 C 2161 1851 2184 1792 2191 1765 C 2209 1693 2214 1690 2286 1690 L 2350 1690 L 2350 1580 L 2350 1470 L 2280 1470 L 2211 1470 L 2200 1428 C 2183 1358 2159 1299 2126 1237 L 2095 1179 L 2148 1129 C 2176 1101 2200 1075 2200 1072 C 2200 1068 2162 1027 2116 981 L 2033 898 L 1985 949 C 1959 977 1929 1000 1919 1000 C 1910 1000 1869 982 1828 961 C 1788 940 1746 920 1735 917 C 1724 914 1696 906 1673 900 L 1630 889 L 1630 815 L 1630 740 L 1500 740 L 1370 740 L 1370 815 L 1370 889 L 1328 900 C 1256 918 1197 941 1147 971 C 1121 987 1094 1000 1088 1000 C 1081 1000 1053 977 1025 950 L 974 900 L 887 987 C 839 1035 800 1075 800 1076 C 800 1078 823 1100 850 1126 C 878 1152 900 1177 900 1182 C 900 1188 882 1229 860 1273 C 838 1318 814 1380 806 1410 L 793 1465 L 721 1468 L 650 1471 L 650 1580 L 650 1690 L 720 1690 C 768 1690 792 1694 794 1703 C 816 1785 846 1869 871 1915 C 899 1968 900 1973 886 1995 C 877 2008 854 2032 835 2047 C 816 2062 800 2078 800 2081 C 800 2084 838 2124 885 2171 L 969 2256 L 1025 2200 L 1080 2145 L 1113 2164 C 1178 2203 1257 2239 1313 2255 L 1370 2271 L 1370 2351 L 1370 2430 L 1500 2430 L 1630 2430 L 1630 2350 z M 399 1630 C 443 1607 430 1550 380 1550 C 321 1550 319 1624 378 1639 C 380 1640 389 1636 399 1630 z M 2655 1620 C 2692 1579 2631 1523 2592 1562 C 2574 1580 2577 1617 2598 1629 C 2623 1644 2635 1642 2655 1620 z M 905 681 C 917 641 885 611 849 630 C 831 640 823 680 837 693 C 851 708 899 700 905 681 z M 2168 669 C 2174 620 2110 604 2095 651 C 2086 678 2108 702 2139 698 C 2159 696 2166 689 2168 669 z M 1538 488 C 1542 454 1511 434 1480 450 C 1441 471 1464 523 1510 518 C 1529 516 1536 508 1538 488 z" stroke-linecap="round" />
</g>
		<g transform="matrix(0.13 0 0 -0.13 -1.74 -1.5)"  >
<path style="stroke: none; stroke-width: 1; stroke-dasharray: none; stroke-linecap: butt; stroke-dashoffset: 0; stroke-linejoin: miter; stroke-miterlimit: 4; fill: rgb(44,33,109); fill-opacity: 0.96; fill-rule: nonzero; opacity: 1;" vector-effect="non-scaling-stroke"  transform=" translate(-1500.56, -1578.56)" d="M 1415 2140 C 1260 2116 1106 2017 1021 1887 C 963 1797 939 1722 933 1610 C 919 1352 1071 1123 1311 1039 C 1399 1008 1551 1002 1639 1025 C 1818 1071 1958 1194 2031 1368 C 2057 1431 2064 1462 2068 1540 C 2073 1659 2060 1732 2015 1825 C 1955 1951 1832 2061 1702 2107 C 1656 2123 1648 2123 1640 2110 C 1625 2087 1628 2070 1648 2064 C 1720 2041 1815 1982 1868 1926 C 2137 1646 2011 1199 1631 1086 C 1469 1038 1265 1093 1139 1219 C 949 1409 940 1720 1118 1913 C 1214 2016 1351 2080 1476 2080 C 1527 2080 1542 2084 1547 2096 C 1564 2140 1515 2156 1415 2140 z" stroke-linecap="round" />
</g>
		<g transform="matrix(0.13 0 0 -0.13 -46.03 -17.3)"  >
<path style="stroke: none; stroke-width: 1; stroke-dasharray: none; stroke-linecap: butt; stroke-dashoffset: 0; stroke-linejoin: miter; stroke-miterlimit: 4; fill: rgb(44,33,109); fill-opacity: 0.96; fill-rule: nonzero; opacity: 1;" vector-effect="non-scaling-stroke"  transform=" translate(-1155.73, -1708.5)" d="M 1092 1803 C 1094 1790 1106 1784 1133 1782 C 1154 1780 1170 1776 1168 1772 C 1166 1768 1148 1732 1127 1692 C 1106 1651 1090 1614 1092 1608 C 1094 1602 1123 1597 1155 1597 C 1202 1597 1216 1601 1218 1614 C 1221 1627 1213 1630 1181 1630 C 1158 1630 1140 1633 1140 1638 C 1140 1642 1158 1679 1180 1720 C 1202 1761 1220 1801 1220 1808 C 1220 1816 1200 1820 1154 1820 C 1097 1820 1089 1818 1092 1803 z" stroke-linecap="round" />
</g>
		<g transform="matrix(0.13 0 0 -0.13 -26.16 -17.39)"  >
<path style="stroke: none; stroke-width: 1; stroke-dasharray: none; stroke-linecap: butt; stroke-dashoffset: 0; stroke-linejoin: miter; stroke-miterlimit: 4; fill: rgb(44,33,109); fill-opacity: 0.96; fill-rule: nonzero; opacity: 1;" vector-effect="non-scaling-stroke"  transform=" translate(-1304.5, -1709.1)" d="M 1250 1712 L 1250 1602 L 1296 1598 C 1321 1596 1346 1598 1352 1601 C 1371 1613 1349 1630 1314 1630 C 1283 1630 1280 1632 1280 1660 C 1280 1688 1283 1690 1316 1690 C 1344 1690 1351 1693 1348 1708 C 1346 1719 1335 1725 1315 1725 C 1290 1725 1284 1729 1282 1752 C 1279 1776 1282 1779 1317 1782 C 1343 1784 1355 1790 1355 1800 C 1355 1811 1341 1816 1303 1818 L 1250 1821 L 1250 1712 z" stroke-linecap="round" />
</g>
		<g transform="matrix(0.13 0 0 -0.13 -6.32 -16.95)"  >
<path style="stroke: none; stroke-width: 1; stroke-dasharray: none; stroke-linecap: butt; stroke-dashoffset: 0; stroke-linejoin: miter; stroke-miterlimit: 4; fill: rgb(44,33,109); fill-opacity: 0.96; fill-rule: nonzero; opacity: 1;" vector-effect="non-scaling-stroke"  transform=" translate(-1453.68, -1705.75)" d="M 1390 1818 C 1390 1816 1389 1766 1388 1705 C 1386 1609 1388 1595 1403 1592 C 1418 1589 1420 1598 1420 1654 C 1420 1690 1424 1720 1428 1720 C 1433 1720 1444 1696 1453 1666 C 1471 1610 1492 1584 1510 1595 C 1516 1599 1520 1645 1520 1711 C 1520 1815 1519 1820 1499 1820 C 1480 1820 1479 1816 1485 1755 C 1489 1719 1488 1690 1484 1690 C 1479 1690 1464 1718 1450 1752 C 1435 1791 1418 1816 1407 1818 C 1398 1820 1390 1820 1390 1818 z" stroke-linecap="round" />
</g>
		<g transform="matrix(0.13 0 0 -0.13 10.46 -17.02)"  >
<path style="stroke: none; stroke-width: 1; stroke-dasharray: none; stroke-linecap: butt; stroke-dashoffset: 0; stroke-linejoin: miter; stroke-miterlimit: 4; fill: rgb(44,33,109); fill-opacity: 0.96; fill-rule: nonzero; opacity: 1;" vector-effect="non-scaling-stroke"  transform=" translate(-1578.38, -1706.3)" d="M 1560 1818 C 1559 1816 1558 1767 1557 1708 C 1556 1626 1558 1599 1568 1595 C 1595 1585 1600 1603 1600 1711 C 1600 1813 1599 1820 1580 1820 C 1569 1820 1560 1819 1560 1818 z" stroke-linecap="round" />
</g>
		<g transform="matrix(0.13 0 0 -0.13 24.31 -17.12)"  >
<path style="stroke: none; stroke-width: 1; stroke-dasharray: none; stroke-linecap: butt; stroke-dashoffset: 0; stroke-linejoin: miter; stroke-miterlimit: 4; fill: rgb(44,33,109); fill-opacity: 0.96; fill-rule: nonzero; opacity: 1;" vector-effect="non-scaling-stroke"  transform=" translate(-1683.19, -1707.09)" d="M 1622 1803 C 1624 1793 1634 1784 1645 1782 C 1663 1780 1665 1772 1665 1687 C 1665 1612 1668 1595 1680 1595 C 1692 1595 1696 1613 1698 1687 C 1701 1773 1702 1779 1723 1782 C 1735 1784 1745 1792 1745 1800 C 1745 1811 1730 1816 1682 1818 C 1625 1821 1619 1819 1622 1803 z" stroke-linecap="round" />
</g>
		<g transform="matrix(0.13 0 0 -0.13 45.13 -16.94)"  >
<path style="stroke: none; stroke-width: 1; stroke-dasharray: none; stroke-linecap: butt; stroke-dashoffset: 0; stroke-linejoin: miter; stroke-miterlimit: 4; fill: rgb(44,33,109); fill-opacity: 0.96; fill-rule: nonzero; opacity: 1;" vector-effect="non-scaling-stroke"  transform=" translate(-1839.45, -1705.72)" d="M 1779 1720 C 1778 1665 1777 1614 1776 1608 C 1775 1601 1782 1595 1790 1595 C 1801 1595 1806 1608 1808 1643 C 1811 1688 1813 1690 1841 1690 C 1869 1690 1870 1689 1870 1639 C 1870 1597 1873 1589 1887 1592 C 1901 1595 1903 1610 1903 1705 C 1902 1796 1899 1816 1887 1818 C 1875 1821 1870 1810 1868 1773 C 1865 1729 1863 1725 1840 1725 C 1817 1725 1815 1729 1812 1773 C 1810 1806 1805 1820 1794 1820 C 1783 1820 1780 1800 1779 1720 z" stroke-linecap="round" />
</g>
		<g transform="matrix(0.13 0 0 -0.13 1.77 22.08)"  >
<path style="stroke: none; stroke-width: 1; stroke-dasharray: none; stroke-linecap: butt; stroke-dashoffset: 0; stroke-linejoin: miter; stroke-miterlimit: 4; fill: rgb(44,33,109); fill-opacity: 0.96; fill-rule: nonzero; opacity: 1;" vector-effect="non-scaling-stroke"  transform=" translate(-1514.51, -1413.05)" d="M 1484 1520 C 1442 1503 1427 1401 1455 1334 C 1469 1300 1471 1299 1517 1302 C 1556 1304 1567 1310 1578 1330 C 1595 1363 1590 1485 1570 1504 C 1550 1524 1510 1531 1484 1520 z M 1539 1476 C 1557 1454 1549 1350 1528 1337 C 1498 1318 1480 1345 1480 1409 C 1480 1481 1508 1513 1539 1476 z" stroke-linecap="round" />
</g>
		<g transform="matrix(0.13 0 0 -0.13 -35.83 22.75)"  >
<path style="stroke: none; stroke-width: 1; stroke-dasharray: none; stroke-linecap: butt; stroke-dashoffset: 0; stroke-linejoin: miter; stroke-miterlimit: 4; fill: rgb(44,33,109); fill-opacity: 0.96; fill-rule: nonzero; opacity: 1;" vector-effect="non-scaling-stroke"  transform=" translate(-1232, -1408)" d="M 1182 1408 C 1184 1315 1188 1295 1200 1295 C 1211 1295 1216 1308 1218 1343 C 1221 1388 1223 1390 1251 1390 C 1273 1390 1280 1395 1280 1410 C 1280 1426 1273 1430 1250 1430 C 1223 1430 1220 1433 1220 1461 C 1220 1489 1222 1491 1253 1488 C 1276 1486 1285 1489 1285 1500 C 1285 1511 1271 1516 1232 1518 L 1179 1521 L 1182 1408 z" stroke-linecap="round" />
</g>
		<g transform="matrix(0.13 0 0 -0.13 -17.42 22.5)"  >
<path style="stroke: none; stroke-width: 1; stroke-dasharray: none; stroke-linecap: butt; stroke-dashoffset: 0; stroke-linejoin: miter; stroke-miterlimit: 4; fill: rgb(44,33,109); fill-opacity: 0.96; fill-rule: nonzero; opacity: 1;" vector-effect="non-scaling-stroke"  transform=" translate(-1370, -1410)" d="M 1320 1410 L 1320 1300 L 1370 1300 C 1407 1300 1420 1304 1420 1314 C 1420 1323 1408 1330 1388 1332 L 1355 1335 L 1357 1428 C 1359 1514 1358 1520 1340 1520 C 1321 1520 1320 1513 1320 1410 z" stroke-linecap="round" />
</g>
		<g transform="matrix(0.13 0 0 -0.13 29.01 22.42)"  >
<path style="stroke: none; stroke-width: 1; stroke-dasharray: none; stroke-linecap: butt; stroke-dashoffset: 0; stroke-linejoin: miter; stroke-miterlimit: 4; fill: rgb(44,33,109); fill-opacity: 0.96; fill-rule: nonzero; opacity: 1;" vector-effect="non-scaling-stroke"  transform=" translate(-1719.64, -1410.63)" d="M 1611 1503 C 1611 1493 1619 1445 1629 1395 C 1644 1318 1649 1305 1667 1302 C 1689 1299 1690 1301 1706 1393 C 1715 1447 1726 1438 1736 1368 C 1744 1310 1747 1305 1770 1305 C 1793 1305 1796 1310 1812 1395 C 1834 1512 1834 1520 1811 1520 C 1795 1520 1791 1510 1785 1450 C 1781 1411 1775 1378 1770 1375 C 1766 1373 1757 1404 1751 1445 C 1741 1507 1735 1520 1720 1520 C 1705 1520 1699 1507 1689 1445 C 1677 1371 1660 1352 1660 1413 C 1660 1481 1648 1520 1629 1520 C 1617 1520 1610 1513 1611 1503 z" stroke-linecap="round" />
</g>
</g>
</g>
</svg>